<?xml version="1.0" encoding="UTF-8" standalone="no"?>
<!-- Created with Inkscape (http://www.inkscape.org/) -->

<svg
   width="36mm"
   height="29mm"
   viewBox="0 0 36 29"
   version="1.1"
   id="svg1"
   xml:space="preserve"
   sodipodi:docname="unlock_institucional_01.svg"
   inkscape:version="1.3.2 (091e20e, 2023-11-25)"
   inkscape:export-filename="finais/unlock_laranja_sombra.svg"
   inkscape:export-xdpi="96"
   inkscape:export-ydpi="96"
   xmlns:inkscape="http://www.inkscape.org/namespaces/inkscape"
   xmlns:sodipodi="http://sodipodi.sourceforge.net/DTD/sodipodi-0.dtd"
   xmlns="http://www.w3.org/2000/svg"
   xmlns:svg="http://www.w3.org/2000/svg"><sodipodi:namedview
     id="namedview1"
     pagecolor="#ffffff"
     bordercolor="#000000"
     borderopacity="0.25"
     inkscape:showpageshadow="2"
     inkscape:pageopacity="0.0"
     inkscape:pagecheckerboard="0"
     inkscape:deskcolor="#d1d1d1"
     inkscape:document-units="mm"
     inkscape:zoom="4"
     inkscape:cx="88.375"
     inkscape:cy="44.75"
     inkscape:window-width="1536"
     inkscape:window-height="955"
     inkscape:window-x="64"
     inkscape:window-y="41"
     inkscape:window-maximized="0"
     inkscape:current-layer="layer1" /><defs
     id="defs1"><clipPath
       clipPathUnits="userSpaceOnUse"
       id="clipPath52"><path
         id="path52"
         style="stroke-width:0.1;stroke-linecap:square;paint-order:markers fill stroke;stop-color:#000000"
         d="m -880.82767,-187.29769 h 1640.84 v 73.28155 h -1640.84 z" /></clipPath><filter
       style="color-interpolation-filters:sRGB;"
       inkscape:label="Drop Shadow"
       id="filter29"
       x="-6.8263269"
       y="-3.29616"
       width="20.341259"
       height="10.33912"><feFlood
         result="flood"
         in="SourceGraphic"
         flood-opacity="0.498039"
         flood-color="rgb(0,0,0)"
         id="feFlood28" /><feGaussianBlur
         result="blur"
         in="SourceGraphic"
         stdDeviation="3.000000"
         id="feGaussianBlur28" /><feOffset
         result="offset"
         in="blur"
         dx="6.000000"
         dy="6.000000"
         id="feOffset28" /><feComposite
         result="comp1"
         operator="in"
         in="flood"
         in2="offset"
         id="feComposite28" /><feComposite
         result="comp2"
         operator="over"
         in="SourceGraphic"
         in2="comp1"
         id="feComposite29" /></filter></defs><g
     id="layer1"><path
       d="m 1.8634763,2.8001142 c -0.132291,6.10745 -0.132291,12.2204498 0,18.3389298 0.02205,1.98437 0.573266,3.40651 1.653646,4.26641 1.091405,0.84886 2.88285,1.2733 5.374349,1.2733 2.4694327,0 4.2498707,-0.42444 5.3412757,-1.2733 1.091405,-0.8599 1.642613,-2.28204 1.653646,-4.26641 0.132292,-6.11848 0.132292,-12.2314798 0,-18.3389298 h -3.869531 c 0.06615,3.02066 0.09372,6.20117 0.08268,9.5415298 0,3.32933 -0.02757,6.50987 -0.08268,9.54154 0,1.03629 -1.041799,1.55443 -3.1253907,1.55443 -2.138704,0 -3.208073,-0.51814 -3.208073,-1.55443 -0.04411,-3.03167 -0.06615,-6.21221 -0.06615,-9.54154 0,-3.3403598 0.03858,-6.5208698 0.115756,-9.5415298 z"
       style="fill:#e6831d;fill-opacity:1"
       id="path22" /><path
       d="m 31.964915,16.890724 c -0.162764,0.0121 -0.317528,0.0417 -0.458247,0.10284 -0.171021,0.0762 -0.310123,0.1927 -0.417011,0.34933 -0.102613,0.1524 -0.153966,0.34294 -0.153966,0.57154 0,0.2286 0.05136,0.42111 0.153966,0.57774 0.106888,0.1524 0.24599,0.26693 0.417011,0.34313 0.140719,0.0612 0.295483,0.0908 0.458247,0.10284 z"
       style="fill:#ef8314;fill-opacity:0;stroke-width:1.00497"
       id="path16" /><path
       d="m 31.94325,10.447194 c 0.02118,-8.6e-4 0.03821,-0.007 0.06012,-0.007 0.215372,0 0.399872,0.0464 0.553708,0.13952 0.153836,0.0889 0.27275,0.21628 0.356261,0.38138 0.08351,0.16086 0.125013,0.3514 0.125013,0.57154 0,0.2159 -0.0415,0.40592 -0.125013,0.57102 -0.08351,0.1651 -0.202425,0.29444 -0.356261,0.38757 -0.153836,0.0889 -0.338336,0.13333 -0.553708,0.13333 -0.0216,0 -0.03914,-0.006 -0.06012,-0.007 z"
       style="fill:#e6831d;fill-opacity:0;stroke-width:1.01895"
       id="path13" /><path
       d="m 31.95929,25.71781 c 1.3e-5,-0.0018 5.16e-4,-0.0034 5.16e-4,-0.0052 v -1.101741 l -5.16e-4,-5.17e-4 z"
       style="fill:#e6831d"
       id="path4" /><path
       d="m 31.278711,26.412341 h 0.01292 c 0.36875,0 0.66766,-0.29891 0.66766,-0.667659 v -0.02687 c -0.0028,0.378066 -0.30449,0.683641 -0.680579,0.694531 z"
       style="fill:#e6831d"
       id="path3" /><path
       d="M 18.085718,2.8003459 V 25.848551 l 1.124996,0.565857 h 2.62878 L 21.525301,17.385502 20.880379,6.2895386 h 0.942578 l 1.885157,12.2535154 2.033984,7.871354 h 5.516459 c 0.0069,0 0.01328,-0.0019 0.02015,-0.0021 h -0.09095 c -0.380379,0 -0.688844,-0.308467 -0.688846,-0.688847 v -3.0887 c -2e-6,-0.36846 0.298682,-0.667143 0.667142,-0.667143 h 0.1726 c 0.342669,0 0.620634,0.277448 0.620634,0.620118 v 1.024743 l 5.16e-4,-5.17e-4 v -3.348116 c -0.378832,-0.002 -0.725179,-0.0563 -1.038179,-0.164847 -0.3175,-0.11006 -0.587987,-0.269027 -0.812354,-0.476457 -0.224366,-0.20744 -0.398131,-0.454732 -0.520898,-0.74259 -0.122767,-0.28787 -0.183968,-0.609718 -0.183968,-0.965316 0,-0.3556 0.0612,-0.677446 0.183968,-0.965316 0.122767,-0.28786 0.296532,-0.535152 0.520898,-0.74259 0.224367,-0.20743 0.494854,-0.366397 0.812354,-0.476457 0.313,-0.10851 0.659347,-0.163308 1.038179,-0.164848 v -1.622123 c -0.0195,3.4e-4 -0.03818,0.0026 -0.05788,0.0026 -0.364068,0 -0.698758,-0.0592 -1.003557,-0.177767 -0.225424,-0.08573 -0.428112,-0.200181 -0.608231,-0.343132 -0.06004,-0.04765 -0.117567,-0.09847 -0.172599,-0.152445 -0.109968,-0.107853 -0.207895,-0.22512 -0.293523,-0.351917 -0.08568,-0.126928 -0.159275,-0.263749 -0.220658,-0.409794 -0.02957,-0.07393 -0.05584,-0.149771 -0.07803,-0.227376 -0.0444,-0.155384 -0.07354,-0.31869 -0.08837,-0.488859 -0.0074,-0.08518 -0.01137,-0.172583 -0.01137,-0.261483 0,-0.08872 0.004,-0.175414 0.01189,-0.259932 0.02372,-0.254033 0.08303,-0.489481 0.178283,-0.705384 0.03169,-0.07183 0.06663,-0.141424 0.104387,-0.208256 0.03777,-0.06683 0.07864,-0.131447 0.122473,-0.193269 0.04385,-0.06182 0.09117,-0.121476 0.141077,-0.1782842 0.05001,-0.0569 0.103072,-0.1114376 0.159163,-0.1632975 0.224367,-0.2074296 0.486983,-0.3663969 0.787549,-0.4764567 0.300564,-0.1100498 0.624382,-0.1648478 0.971517,-0.1648478 0.0197,0 0.03838,0.00173 0.05788,0.00207 V 7.233667 H 31.29008 c -0.403836,0 -0.731221,-0.3273823 -0.731222,-0.7312215 v -3.056661 c 0.01495,-0.0149 -0.02487,-0.6454386 -0.705383,-0.6454386 h -1.212329 c 0,0 -0.419613,0.1765018 -0.419613,0.605131 l 0.265617,9.2009891 0.711068,10.302213 H 28.288713 L 25.973608,10.324434 24.055379,2.8003459 Z"
       style="fill:#e6831d"
       id="path26" /><path
       d="m 31.959315,24.610144 v -0.99787 l -0.001,0.50657 z"
       id="path21" /><path
       d="m 31.959835,23.611764 -5.2e-4,5.1e-4 v 0.99787 l 5.2e-4,5.2e-4 z"
       id="path19" /><path
       d="m 31.662895,23.621097 c -0.006,0.327584 -0.0019,0.655177 0,0.98277 l 1.374257,1.772353 h 1.66152 l -1.799299,-2.323989 1.705745,-2.048933 h -1.599489 z"
       style="fill:#174266;fill-opacity:1;stroke:none;stroke-width:0.147578;stroke-dasharray:none;stroke-opacity:0.597633"
       id="path18" /><path
       d="m 100.12929,158.37069 -0.004,-0.98159 0.002,-1.02497 a 0.63464455,0.63464455 45.068984 0 0 -0.634645,-0.63617 h -0.168029 a 0.65617335,0.65617335 135 0 0 -0.656173,0.65617 v 3.08827 a 0.70025285,0.70025285 45 0 0 0.700253,0.70025 h 0.123949 a 0.6361746,0.6361746 135 0 0 0.636175,-0.63617 z"
       style="fill:#174266;fill-opacity:1"
       id="path20"
       transform="translate(-68.169975,-133.76054)" /><path
       d="m 31.959835,10.447194 v 2.17092 c 0.1813,-0.008 0.3421,-0.0466 0.47542,-0.12661 0.14817,-0.0931 0.2627,-0.22247 0.34313,-0.38757 0.0804,-0.1651 0.12041,-0.35512 0.12041,-0.57102 0,-0.22014 -0.038,-0.41068 -0.11421,-0.57154 -0.0762,-0.1651 -0.18825,-0.29248 -0.33641,-0.38138 -0.13013,-0.0842 -0.29593,-0.12473 -0.48834,-0.1328 z"
       style="fill:none"
       id="path12" /><path
       d="m 31.920537,18.935038 v 1.33282 c 0.0068,2.4e-5 0.01479,5.25e-4 0.02226,5.25e-4 0.45433,0 0.823117,-0.04273 1.106339,-0.127833 0.289107,-0.08078 0.554688,-0.181146 0.796618,-0.300341 v -1.442971 c -0.129774,0.08942 -0.27704,0.176745 -0.442262,0.26189 -0.159312,0.08089 -0.345069,0.148871 -0.557481,0.204213 -0.212414,0.05533 -0.466309,0.0831 -0.761327,0.0831 -0.05695,0 -0.10905,-0.0082 -0.164217,-0.01168 z"
       style="fill:#174266;fill-opacity:1;stroke:none;stroke-width:0.17228;stroke-dasharray:none;stroke-opacity:0.597633;paint-order:markers fill stroke"
       id="path17" /><path
       d="m 31.959835,15.565224 c -0.378834,0.002 -0.725182,0.0563 -1.038184,0.16485 -0.3175,0.11006 -0.587987,0.26902 -0.812354,0.47645 -0.224366,0.20744 -0.398131,0.45473 -0.520898,0.74259 -0.122767,0.28787 -0.183968,0.60972 -0.183968,0.96532 0,0.3556 0.0612,0.67745 0.183968,0.96532 0.122767,0.28786 0.296532,0.53515 0.520898,0.74259 0.224367,0.20743 0.494854,0.36639 0.812354,0.47645 0.313002,0.10851 0.65935,0.16331 1.038184,0.16485 v -1.3255 c -0.161157,-0.0121 -0.314394,-0.0417 -0.453724,-0.10284 -0.169333,-0.0762 -0.307061,-0.19073 -0.412894,-0.34313 -0.1016,-0.15663 -0.152446,-0.34914 -0.152446,-0.57774 0,-0.2286 0.05085,-0.41914 0.152446,-0.57154 0.105833,-0.15663 0.243561,-0.27313 0.412894,-0.34933 0.13933,-0.0612 0.292567,-0.0908 0.453724,-0.10284 z"
       style="fill:#174266;fill-opacity:1;stroke:none;stroke-opacity:1;stroke-width:0.3;stroke-dasharray:0.90000002, 0.3;stroke-dashoffset:0"
       id="path15" /><path
       d="m 31.941812,15.564591 v 1.326188 c 0.05359,-0.0034 0.104126,-0.01162 0.159513,-0.01162 0.286568,0 0.533198,0.02764 0.73953,0.08269 0.206332,0.05089 0.386762,0.118486 0.541513,0.203196 0.160495,0.08479 0.303492,0.171638 0.429589,0.260587 V 15.989853 C 33.576969,15.867011 33.319,15.765274 33.038152,15.684803 32.763046,15.604323 32.404816,15.56381 31.963507,15.56381 c -0.0068,0 -0.01433,4.98e-4 -0.02166,5.22e-4 z"
       style="fill:#174266;fill-opacity:1;stroke:none;stroke-width:0.171709;stroke-dasharray:none;stroke-opacity:0.597633;paint-order:markers fill stroke"
       id="path14" /><path
       d="m 31.959806,9.1854858 c -0.0195,-3.4e-4 -0.03818,-0.00207 -0.05788,-0.00207 -0.08678,0 -0.171929,0.00348 -0.255799,0.010335 -0.25161,0.020566 -0.490294,0.07196 -0.715718,0.1545125 -0.300566,0.1100599 -0.563182,0.2690269 -0.787549,0.4764567 -0.05609,0.05186 -0.109153,0.1063971 -0.159163,0.1632975 -0.04991,0.056808 -0.09723,0.1164622 -0.141077,0.1782842 -0.04383,0.06182 -0.0847,0.126443 -0.122473,0.193269 -0.03775,0.06683 -0.0727,0.136431 -0.104387,0.208256 -0.09525,0.215903 -0.154564,0.451351 -0.178283,0.705384 -0.0079,0.08452 -0.01189,0.171208 -0.01189,0.259932 0,0.0889 0.004,0.176305 0.01137,0.261483 0.01483,0.170169 0.04397,0.333475 0.08837,0.488859 0.02219,0.07761 0.04846,0.153442 0.07803,0.227376 0.06138,0.146045 0.134976,0.282866 0.220658,0.409794 0.08563,0.126797 0.183555,0.244064 0.293523,0.351917 0.220132,0.2159 0.480264,0.381277 0.78083,0.495577 0.304799,0.11854 0.639489,0.177767 1.003557,0.177767 0.0197,0 0.03828,-0.0021 0.05788,-0.0031 v -1.324984 c -0.0202,8.9e-4 -0.03708,0.0067 -0.05788,0.0067 -0.207435,0 -0.385134,-0.04439 -0.533301,-0.133325 -0.148166,-0.0931 -0.262699,-0.222473 -0.343132,-0.387573 -0.08043,-0.1651 -0.120406,-0.355125 -0.120406,-0.571025 0,-0.220139 0.03997,-0.410681 0.120406,-0.571541 0.08043,-0.1651 0.194966,-0.292472 0.343132,-0.381372 0.148167,-0.0931 0.325866,-0.139526 0.533301,-0.139526 0.0211,0 0.03748,0.0062 0.05788,0.0072 z"
       style="fill:#174266"
       id="path2" /><path
       d="M 31.891262,9.1886129 V 10.44879 c 0.19099,0.0081 0.355566,0.04849 0.484736,0.132592 0.147066,0.08885 0.258289,0.215979 0.333927,0.380841 0.07563,0.160697 0.113366,0.350931 0.113366,0.570762 0,0.215587 -0.0397,0.405335 -0.119521,0.570219 -0.07981,0.164862 -0.193521,0.294019 -0.340597,0.38702 -0.132337,0.07995 -0.291949,0.118442 -0.471911,0.126356 v 1.323142 c 0.338573,-0.0059 0.649838,-0.06306 0.932029,-0.174858 0.302549,-0.114082 0.563222,-0.279279 0.781738,-0.494887 0.218504,-0.215586 0.386566,-0.468945 0.50422,-0.76064 0.121864,-0.295939 0.182612,-0.621266 0.182612,-0.976352 0,-0.35512 -0.06076,-0.676512 -0.182612,-0.963994 C 33.987394,10.281534 33.814908,10.034072 33.592205,9.8269213 33.36949,9.6198061 33.108809,9.4610418 32.810466,9.3511376 32.528623,9.2472384 32.221843,9.1943979 31.891262,9.1885667 Z"
       style="opacity:1;fill:#174266;fill-opacity:1;stroke:none;stroke-width:0.150576;stroke-linecap:round;stroke-linejoin:bevel;stroke-dasharray:none;stroke-opacity:0.597633;paint-order:markers fill stroke"
       id="path10" /><path
       d="M 31.910049,6.1572943 V 7.221523 h 1.908033 V 6.1572943 Z"
       style="fill:#174266;fill-opacity:1;stroke:none;stroke-width:0.146753;stroke-dasharray:none;stroke-opacity:0.597633;paint-order:markers fill stroke"
       id="path8" /><path
       d="m 31.242256,2.7907184 a 0.71366806,0.71518153 0 0 0 -0.683374,0.744305 V 6.5179859 A 0.71394231,0.71545636 0 0 0 31.272824,7.23344 h 0.687011 V 6.056339 h -0.004 l 3e-4,-2.5501466 a 0.71387535,0.71538925 0 0 0 -0.713879,-0.715474 z"
       style="fill:#174266;fill-opacity:1;stroke-width:1.00106"
       id="path7" /><ellipse
       style="display:inline;opacity:1;fill:#e6831d;fill-opacity:0.363388;stroke:none;stroke-width:0.0993832;stroke-linecap:round;stroke-linejoin:bevel;stroke-dasharray:none;stroke-opacity:0.597633;paint-order:markers fill stroke"
       id="path6"
       cx="31.485252"
       cy="11.522156"
       rx="0.46409968"
       ry="0.67958456" /><path
       style="display:inline;opacity:1;fill:#174266;fill-opacity:0.0976332;stroke:none;stroke-width:0.15;stroke-linecap:round;stroke-linejoin:bevel;stroke-dasharray:none;stroke-opacity:0.597633;paint-order:markers fill stroke"
       d="m 18.088418,25.85363 1.103764,0.559854 V 3.2172348 L 18.117264,2.7947874 Z"
       id="path11"
       sodipodi:nodetypes="ccccc" /><path
       style="display:inline;opacity:1;fill:#174266;fill-opacity:0.0976332;stroke:none;stroke-width:0.15;stroke-linecap:round;stroke-linejoin:bevel;stroke-dasharray:none;stroke-opacity:0.597633;paint-order:markers fill stroke"
       d="M 19.153094,3.2052117 24.058631,2.990228 24.019544,2.7947882 h -5.980456 z"
       id="path23"
       sodipodi:nodetypes="ccccc" /><path
       style="display:inline;fill:#174266;fill-opacity:0.0976332;stroke:none;stroke-width:0.121761;stroke-linecap:round;stroke-linejoin:bevel;stroke-dasharray:none;stroke-opacity:0.597633;paint-order:markers fill stroke"
       d="M 13.04357,3.2102726 15.895599,2.9952889 15.869844,2.7998491 H 11.929188 Z"
       id="path23-7"
       sodipodi:nodetypes="ccccc" /><path
       style="display:inline;opacity:1;fill:#d27d23;fill-opacity:1;stroke:none;stroke-width:0.15;stroke-linecap:round;stroke-linejoin:bevel;stroke-dasharray:none;stroke-opacity:0.597633;paint-order:markers fill stroke"
       d="m 11.990522,22.219154 c -0.169968,0.38113 -0.343299,0.577419 1.07328,0.0058 V 3.2234341 L 12.013149,2.8228909 Z"
       id="path28"
       sodipodi:nodetypes="ccccc" /><path
       d="m 31.938081,16.889878 c -0.161157,0.0121 -0.314394,0.0417 -0.453724,0.10284 -0.169333,0.0762 -0.307061,0.1927 -0.412894,0.34933 -0.1016,0.1524 -0.152446,0.34294 -0.152446,0.57154 0,0.2286 0.05085,0.42111 0.152446,0.57774 0.105833,0.1524 0.243561,0.26693 0.412894,0.34313 0.13933,0.0612 0.292567,0.0908 0.453724,0.10284 z"
       style="fill:#d27d23;fill-opacity:1"
       id="path16-3" /><path
       d="m 31.911772,10.458042 c -0.0204,-8.6e-4 -0.0368,-0.007 -0.0579,-0.007 -0.207435,0 -0.385136,0.0464 -0.533303,0.13952 -0.148166,0.0889 -0.262698,0.21628 -0.343131,0.38138 -0.08043,0.16086 -0.120406,0.3514 -0.120406,0.57154 0,0.2159 0.03997,0.40592 0.120406,0.57102 0.08043,0.1651 0.194965,0.29444 0.343131,0.38757 0.148167,0.0889 0.325868,0.13333 0.533303,0.13333 0.0208,0 0.0377,-0.006 0.0579,-0.007 z"
       style="fill:#d27d23;fill-opacity:1;filter:url(#filter29)"
       id="path13-9" /></g></svg>
